PathFileType	4	(X/Y/Z)	C:/Users/opensim2020/Desktop/walking_exp_matlab/subject02_walking12_straight_02.trc																																																																																																																												
DataRate	CameraRate	NumFrames	NumMarkers	Units	OrigDataRate	OrigDataStartFrame	OrigNumFrames																																																																																																																								
100	100	5	42	mm	100	1109	149																																																																																																																								
Frame#	Time	LFHD			RFHD			LBHD			RBHD			C7			T10			CLAV			STRN			RBAK			LSHO			LUPA			LELB			LFRM			LWRA			LWRB			LFIN			RSHO			RUPA			RELB			RFRM			RWRA			RWRB			RFIN			LASI			RASI			LPSI			RPSI			LTHI			LKNE			LTIB			LANK			LHEE			LTOE			RTHI			RKNE			RTIB			RANK			RHEE			RTOE			*39			*40			*41		
		X1	Y1	Z1	X2	Y2	Z2	X3	Y3	Z3	X4	Y4	Z4	X5	Y5	Z5	X6	Y6	Z6	X7	Y7	Z7	X8	Y8	Z8	X9	Y9	Z9	X10	Y10	Z10	X11	Y11	Z11	X12	Y12	Z12	X13	Y13	Z13	X14	Y14	Z14	X15	Y15	Z15	X16	Y16	Z16	X17	Y17	Z17	X18	Y18	Z18	X19	Y19	Z19	X20	Y20	Z20	X21	Y21	Z21	X22	Y22	Z22	X23	Y23	Z23	X24	Y24	Z24	X25	Y25	Z25	X26	Y26	Z26	X27	Y27	Z27	X28	Y28	Z28	X29	Y29	Z29	X30	Y30	Z30	X31	Y31	Z31	X32	Y32	Z32	X33	Y33	Z33	X34	Y34	Z34	X35	Y35	Z35	X36	Y36	Z36	X37	Y37	Z37	X38	Y38	Z38	X39	Y39	Z39	X40	Y40	Z40	X41	Y41	Z41	X42	Y42	Z42
																																																																																																																															
94	0.93	307.87384	1724.54248	-1553.81116	285.48273	1701.65955	-1412.81445	174.15451	1661.63574	-1583.6416	140.42807	1639.03931	-1444.91101	102.97662	1514.17908	-1513.72461	57.88449	1234.40173	-1510.28174	244.09886	1448.98645	-1522.50806	302.20767	1280.68982	-1508.1322	49.25037	1336.93433	-1446.13086	173.7588	1485.03687	-1693.08997	149.00542	1281.72961	-1774.28809	131.23911	1142.53882	-1781.12219	121.25675	1012.11389	-1793.38843	141.81464	877.72913	-1748.71338	111.81762	889.0788	-1796.06055	112.44003	821.08759	-1791.57495	176.9677	1484.04956	-1326.84998	169.41002	1293.96179	-1238.00037	208.24422	1151.75806	-1212.84497	275.95654	1049.91077	-1200.39551	366.58923	952.3493	-1225.01697	324.87292	929.26318	-1194.06104	384.54321	888.87567	-1191.94202	317.9184	995.39954	-1636.79468	290.44452	959.13214	-1384.96021	96.95361	1020.33362	-1576.98584	81.41647	1012.44952	-1463.89709	308.10568	683.61359	-1700.49744	302.13583	480.29031	-1672.02515	254.27133	290.67764	-1679.77454	257.23526	69.27485	-1645.87805	218.77731	40.22163	-1597.4668	414.66956	32.54003	-1648.13245	196.96538	655.89502	-1310.3175	194.22919	459.13501	-1310.14832	40.71464	360.31699	-1317.9408	-106.28321	242.41774	-1363.50171	-153.10597	229.75513	-1431.69177	-76.46806	84.49898	-1331.60046	199.51274	1796.15112	-1476.47107	-2846.0022	1034.23083	3356.74805	NaN	NaN	NaN
95	0.94	320.20358	1726.39294	-1554.12329	297.16843	1703.40894	-1413.12732	186.26288	1663.82703	-1584.39014	152.02431	1641.23694	-1445.78149	114.67767	1516.42529	-1514.84546	69.30853	1236.49573	-1512.24963	255.5995	1451.03467	-1523.02881	313.38977	1282.49792	-1508.77258	60.02309	1339.09412	-1448.62646	186.64668	1487.77295	-1693.94495	165.96513	1284.50781	-1776.78015	151.75755	1144.94653	-1785.6283	145.93906	1014.30511	-1798.70166	170.20421	880.10101	-1754.71655	140.31966	891.02515	-1801.97278	145.08049	823.63434	-1799.18518	187.46181	1485.7832	-1327.80615	179.57948	1295.52515	-1239.05762	216.60463	1152.61328	-1215.39832	282.41238	1049.68323	-1202.92432	371.48172	950.36688	-1227.69019	329.44193	928.16742	-1196.19495	387.93503	885.78699	-1194.87402	328.67426	996.21588	-1637.33496	300.70007	962.75555	-1384.33752	108.09933	1022.60962	-1579.17419	91.56275	1014.76678	-1466.50208	313.36963	683.91754	-1700.8363	305.46985	479.9111	-1672.45325	256.73871	290.39508	-1680.46106	257.43048	69.29738	-1645.79272	218.67642	40.22726	-1597.48291	414.61856	32.53133	-1648.12073	214.96535	658.12012	-1311.50574	217.65401	462.09518	-1311.44019	64.83298	362.79602	-1320.60242	-80.9872	243.28661	-1366.69214	-127.21322	227.9597	-1435.28992	-48.03547	87.67216	-1329.82373	211.63829	1798.24951	-1477.14124	-2846.57983	1034.05383	3355.47168	NaN	NaN	NaN
96	0.95	332.34665	1727.68323	-1553.79785	308.73956	1704.99939	-1413.26733	198.35439	1665.92358	-1585.05383	163.61949	1643.29321	-1446.53662	126.35624	1518.58459	-1515.88538	80.71846	1238.57239	-1514.13525	267.02515	1452.98047	-1523.47571	324.60977	1284.255	-1509.44128	71.3838	1340.71277	-1450.55469	199.46498	1490.43481	-1694.67065	182.81396	1287.42114	-1779.19177	172.36357	1147.56262	-1790.02087	170.80545	1016.82642	-1803.896	200.47995	884.11487	-1761.26355	169.30756	893.53723	-1807.81042	177.95023	826.92395	-1806.57629	198.49284	1487.25549	-1328.20544	188.25613	1296.93945	-1240.99683	225.14984	1153.55493	-1217.771	289.38184	1049.3949	-1204.80188	376.26755	948.1012	-1229.94165	333.79486	927.13123	-1198.17102	391.21826	882.78473	-1197.60815	339.24014	996.70605	-1637.61328	310.53952	966.10199	-1383.69897	119.17657	1024.75159	-1581.29053	101.82519	1016.97784	-1469.15039	318.42245	683.90924	-1701.0127	308.43976	479.65198	-1672.80542	258.34576	290.36697	-1680.83154	257.39999	69.35316	-1645.7395	218.49399	40.51188	-1597.44336	414.56592	32.49441	-1648.13208	232.62549	660.38849	-1312.50476	240.80034	464.94009	-1312.55188	88.97177	364.95471	-1322.94165	-54.88115	242.68172	-1369.8042	-100.53481	224.54478	-1438.71106	-18.49906	89.59141	-1328.31799	223.76865	1800.14246	-1477.52478	NaN	NaN	NaN	NaN	NaN	NaN
97	0.96	344.42871	1729.54102	-1554.04773	320.31165	1706.48572	-1413.23169	210.6716	1667.8042	-1585.24097	174.97641	1645.2052	-1447.25024	137.99132	1520.62048	-1516.93835	91.94058	1240.48962	-1516.11597	278.53741	1454.89001	-1523.85742	335.82257	1285.88647	-1510.07129	82.34697	1342.24084	-1452.75354	212.3826	1492.94092	-1695.00732	199.77211	1290.328	-1781.28906	193.02638	1150.50476	-1794.30713	195.94902	1019.76746	-1809.06873	229.7132	887.89795	-1767.0271	198.49112	896.64008	-1813.75696	210.90271	830.87317	-1813.65955	208.84641	1488.73596	-1329.10522	198.19406	1298.48938	-1241.96472	233.41628	1154.39319	-1219.96094	296.34677	1049.42151	-1206.76404	380.47818	945.95667	-1232.25647	337.93631	926.08514	-1199.99951	394.30911	879.95636	-1200.276	350.39157	997.24768	-1638.24316	320.36908	969.34198	-1383.18811	130.22639	1026.86621	-1583.24268	112.38294	1019.22174	-1471.45972	323.57867	683.82526	-1700.92834	310.95026	479.43576	-1672.88	259.21503	290.6282	-1680.94885	257.35129	69.39213	-1645.59949	218.10307	40.90136	-1597.77063	414.51379	32.46469	-1648.12341	250.12102	662.68848	-1313.12842	263.48904	467.84656	-1313.80823	113.24793	366.07755	-1325.73083	-27.94501	240.65669	-1372.69678	-72.8996	219.92757	-1441.70972	12.16563	90.30275	-1327.35242	235.7527	1801.89026	-1477.76526	NaN	NaN	NaN	NaN	NaN	NaN
98	0.97	356.51654	1730.98157	-1553.76392	331.68372	1707.79602	-1413.03894	222.7719	1669.60071	-1585.67566	186.5123	1646.82605	-1447.88	149.6299	1522.47559	-1517.90552	103.22516	1242.32715	-1517.98535	289.98651	1456.57629	-1524.19873	346.99469	1287.35376	-1510.73633	94.09465	1343.69336	-1454.448	224.84315	1495.51636	-1695.68921	216.23412	1293.5675	-1783.62073	213.66069	1153.55054	-1798.5011	221.1696	1023.04175	-1814.06519	259.84543	892.60571	-1773.16455	227.87366	900.255	-1819.52332	244.22464	835.401	-1820.35193	219.83766	1489.87939	-1329.53687	206.94933	1299.58545	-1243.81299	241.63075	1155.15039	-1221.94653	302.37546	1049.03296	-1208.64746	384.84833	943.83539	-1234.27539	341.95578	925.00323	-1201.74438	396.86749	877.15942	-1202.84656	359.65527	996.97089	-1638.17871	330.3266	972.42615	-1383.11816	141.14746	1028.88635	-1584.88293	123.12973	1021.46686	-1473.26514	328.1554	683.36615	-1701.01697	313.05078	479.47562	-1673.47559	259.68463	291.03864	-1680.9574	257.29105	69.50179	-1645.47241	218.11577	40.93666	-1597.62402	414.46124	32.40915	-1648.17432	267.59012	665.06647	-1313.45581	285.72385	470.48465	-1315.14453	137.7081	366.16577	-1328.19739	-0.44541	237.31923	-1375.4696	-45.11036	214.1805	-1444.70874	44.1772	90.05692	-1326.95923	247.63153	1803.5061	-1477.9082	NaN	NaN	NaN	NaN	NaN	NaN
